<mxfile host="app.diagrams.net" agent="Mozilla/5.0 (Windows NT 10.0; Win64; x64) AppleWebKit/537.36 (KHTML, like Gecko) Chrome/141.0.0.0 Safari/537.36" version="28.2.7">
  <diagram name="Diagrama de Componentes (limpo)" id="9wSfkQhpujdYolk8b2GB">
    <mxGraphModel dx="1678" dy="874" grid="1" gridSize="10" guides="1" tooltips="1" connect="1" arrows="1" fold="1" page="1" pageScale="1" pageWidth="827" pageHeight="1169" math="0" shadow="0">
      <root>
        <mxCell id="0" />
        <mxCell id="1" parent="0" />
        <mxCell id="p4Q4N03hNA8ftK5Ow6wj-1" value="Interface (Front-end)" style="shape=rectangle;rounded=0;whiteSpace=wrap;html=1;strokeColor=#666666;fillColor=#F5F5F5;" vertex="1" parent="1">
          <mxGeometry x="20" y="40" width="460" height="520" as="geometry" />
        </mxCell>
        <mxCell id="p4Q4N03hNA8ftK5Ow6wj-2" value="TelaAdministrador" style="shape=component;html=1;whiteSpace=wrap;strokeColor=#333333;" vertex="1" parent="p4Q4N03hNA8ftK5Ow6wj-1">
          <mxGeometry x="40" y="70" width="360" height="70" as="geometry" />
        </mxCell>
        <mxCell id="p4Q4N03hNA8ftK5Ow6wj-3" value="TelaAtleta" style="shape=component;html=1;whiteSpace=wrap;strokeColor=#333333;" vertex="1" parent="p4Q4N03hNA8ftK5Ow6wj-1">
          <mxGeometry x="33" y="170" width="360" height="70" as="geometry" />
        </mxCell>
        <mxCell id="p4Q4N03hNA8ftK5Ow6wj-4" value="TelaComite" style="shape=component;html=1;whiteSpace=wrap;strokeColor=#333333;" vertex="1" parent="p4Q4N03hNA8ftK5Ow6wj-1">
          <mxGeometry x="33" y="300" width="360" height="70" as="geometry" />
        </mxCell>
        <mxCell id="p4Q4N03hNA8ftK5Ow6wj-5" value="Serviços (Backend)" style="shape=rectangle;rounded=0;whiteSpace=wrap;html=1;strokeColor=#666666;fillColor=#F5F5F5;" vertex="1" parent="1">
          <mxGeometry x="520" y="40" width="700" height="520" as="geometry" />
        </mxCell>
        <mxCell id="p4Q4N03hNA8ftK5Ow6wj-6" value="REST API" style="shape=component;html=1;whiteSpace=wrap;strokeColor=#333333;" vertex="1" parent="p4Q4N03hNA8ftK5Ow6wj-5">
          <mxGeometry x="40" y="60" width="600" height="80" as="geometry" />
        </mxCell>
        <mxCell id="p4Q4N03hNA8ftK5Ow6wj-7" value="GerenciadorCompeticao" style="shape=component;html=1;whiteSpace=wrap;strokeColor=#333333;" vertex="1" parent="p4Q4N03hNA8ftK5Ow6wj-5">
          <mxGeometry x="50" y="180" width="280" height="70" as="geometry" />
        </mxCell>
        <mxCell id="p4Q4N03hNA8ftK5Ow6wj-8" value="GerenciadorInscricao" style="shape=component;html=1;whiteSpace=wrap;strokeColor=#333333;" vertex="1" parent="p4Q4N03hNA8ftK5Ow6wj-5">
          <mxGeometry x="360" y="180" width="280" height="70" as="geometry" />
        </mxCell>
        <mxCell id="p4Q4N03hNA8ftK5Ow6wj-9" value="GerenciadorResultado" style="shape=component;html=1;whiteSpace=wrap;strokeColor=#333333;" vertex="1" parent="p4Q4N03hNA8ftK5Ow6wj-5">
          <mxGeometry x="40" y="310" width="280" height="70" as="geometry" />
        </mxCell>
        <mxCell id="p4Q4N03hNA8ftK5Ow6wj-10" value="GeradorRelatorio" style="shape=component;html=1;whiteSpace=wrap;strokeColor=#333333;" vertex="1" parent="p4Q4N03hNA8ftK5Ow6wj-5">
          <mxGeometry x="360" y="310" width="280" height="70" as="geometry" />
        </mxCell>
        <mxCell id="p4Q4N03hNA8ftK5Ow6wj-11" value="«contract»&#xa;REST API expõe endpoints para competição,&#xa;inscrição, resultados e relatórios." style="shape=note;whiteSpace=wrap;html=1;size=14;" vertex="1" parent="p4Q4N03hNA8ftK5Ow6wj-5">
          <mxGeometry x="40" y="410" width="600" height="80" as="geometry" />
        </mxCell>
        <mxCell id="p4Q4N03hNA8ftK5Ow6wj-12" value="Banco de Dados" style="shape=rectangle;rounded=0;whiteSpace=wrap;html=1;strokeColor=#666666;fillColor=#F5F5F5;" vertex="1" parent="1">
          <mxGeometry x="1300" y="60" width="300" height="520" as="geometry" />
        </mxCell>
        <mxCell id="p4Q4N03hNA8ftK5Ow6wj-13" value="SGO_DB" style="shape=process;html=1;whiteSpace=wrap;strokeColor=#333333;" vertex="1" parent="p4Q4N03hNA8ftK5Ow6wj-12">
          <mxGeometry x="40" y="200" width="220" height="100" as="geometry" />
        </mxCell>
        <mxCell id="p4Q4N03hNA8ftK5Ow6wj-14" value="HTTP/JSON" style="endArrow=block;html=1;strokeColor=#333333;" edge="1" parent="1" source="p4Q4N03hNA8ftK5Ow6wj-2" target="p4Q4N03hNA8ftK5Ow6wj-6">
          <mxGeometry relative="1" as="geometry" />
        </mxCell>
        <mxCell id="p4Q4N03hNA8ftK5Ow6wj-15" value="HTTP/JSON" style="endArrow=block;html=1;strokeColor=#333333;exitX=1;exitY=0.5;exitDx=0;exitDy=0;edgeStyle=orthogonalEdgeStyle;" edge="1" parent="1" source="p4Q4N03hNA8ftK5Ow6wj-3" target="p4Q4N03hNA8ftK5Ow6wj-6">
          <mxGeometry relative="1" as="geometry">
            <Array as="points">
              <mxPoint x="500" y="245" />
              <mxPoint x="500" y="140" />
            </Array>
          </mxGeometry>
        </mxCell>
        <mxCell id="p4Q4N03hNA8ftK5Ow6wj-16" value="HTTP/JSON" style="endArrow=block;html=1;strokeColor=#333333;edgeStyle=orthogonalEdgeStyle;" edge="1" parent="1" source="p4Q4N03hNA8ftK5Ow6wj-4" target="p4Q4N03hNA8ftK5Ow6wj-6">
          <mxGeometry relative="1" as="geometry">
            <Array as="points">
              <mxPoint x="500" y="375" />
              <mxPoint x="500" y="140" />
            </Array>
          </mxGeometry>
        </mxCell>
        <mxCell id="p4Q4N03hNA8ftK5Ow6wj-17" value="" style="endArrow=block;html=1;strokeColor=#333333;exitX=0.25;exitY=1;exitDx=0;exitDy=0;" edge="1" parent="1" source="p4Q4N03hNA8ftK5Ow6wj-6" target="p4Q4N03hNA8ftK5Ow6wj-7">
          <mxGeometry relative="1" as="geometry" />
        </mxCell>
        <mxCell id="p4Q4N03hNA8ftK5Ow6wj-18" value="" style="endArrow=block;html=1;strokeColor=#333333;exitX=0.768;exitY=0.994;exitDx=0;exitDy=0;exitPerimeter=0;" edge="1" parent="1" source="p4Q4N03hNA8ftK5Ow6wj-6" target="p4Q4N03hNA8ftK5Ow6wj-8">
          <mxGeometry relative="1" as="geometry" />
        </mxCell>
        <mxCell id="p4Q4N03hNA8ftK5Ow6wj-19" value="" style="endArrow=block;html=1;strokeColor=#333333;edgeStyle=orthogonalEdgeStyle;" edge="1" parent="1" source="p4Q4N03hNA8ftK5Ow6wj-6" target="p4Q4N03hNA8ftK5Ow6wj-9">
          <mxGeometry relative="1" as="geometry">
            <Array as="points">
              <mxPoint x="860" y="385" />
            </Array>
          </mxGeometry>
        </mxCell>
        <mxCell id="p4Q4N03hNA8ftK5Ow6wj-20" value="" style="endArrow=block;html=1;strokeColor=#333333;edgeStyle=orthogonalEdgeStyle;entryX=0.058;entryY=0.514;entryDx=0;entryDy=0;entryPerimeter=0;" edge="1" parent="1" source="p4Q4N03hNA8ftK5Ow6wj-6" target="p4Q4N03hNA8ftK5Ow6wj-10">
          <mxGeometry relative="1" as="geometry">
            <Array as="points">
              <mxPoint x="860" y="385" />
              <mxPoint x="896" y="385" />
            </Array>
          </mxGeometry>
        </mxCell>
        <mxCell id="p4Q4N03hNA8ftK5Ow6wj-22" value="SQL" style="endArrow=block;html=1;strokeColor=#333333;" edge="1" parent="1" source="p4Q4N03hNA8ftK5Ow6wj-8" target="p4Q4N03hNA8ftK5Ow6wj-13">
          <mxGeometry relative="1" as="geometry" />
        </mxCell>
        <mxCell id="p4Q4N03hNA8ftK5Ow6wj-24" value="SQL" style="endArrow=block;html=1;strokeColor=#333333;" edge="1" parent="1" source="p4Q4N03hNA8ftK5Ow6wj-10" target="p4Q4N03hNA8ftK5Ow6wj-13">
          <mxGeometry relative="1" as="geometry" />
        </mxCell>
        <mxCell id="p4Q4N03hNA8ftK5Ow6wj-25" style="edgeStyle=orthogonalEdgeStyle;rounded=0;orthogonalLoop=1;jettySize=auto;html=1;entryX=0.555;entryY=1.001;entryDx=0;entryDy=0;entryPerimeter=0;exitX=0.5;exitY=1;exitDx=0;exitDy=0;" edge="1" parent="1" source="p4Q4N03hNA8ftK5Ow6wj-9" target="p4Q4N03hNA8ftK5Ow6wj-13">
          <mxGeometry relative="1" as="geometry" />
        </mxCell>
        <mxCell id="p4Q4N03hNA8ftK5Ow6wj-27" style="edgeStyle=orthogonalEdgeStyle;rounded=0;orthogonalLoop=1;jettySize=auto;html=1;exitX=1;exitY=0.5;exitDx=0;exitDy=0;entryX=0.576;entryY=0.978;entryDx=0;entryDy=0;entryPerimeter=0;" edge="1" parent="1" source="p4Q4N03hNA8ftK5Ow6wj-7" target="p4Q4N03hNA8ftK5Ow6wj-13">
          <mxGeometry relative="1" as="geometry">
            <Array as="points">
              <mxPoint x="860" y="255" />
              <mxPoint x="860" y="440" />
              <mxPoint x="1467" y="440" />
            </Array>
          </mxGeometry>
        </mxCell>
        <mxCell id="p4Q4N03hNA8ftK5Ow6wj-28" value="Text" style="text;html=1;whiteSpace=wrap;strokeColor=none;fillColor=none;align=center;verticalAlign=middle;rounded=0;" vertex="1" parent="1">
          <mxGeometry x="820" y="370" width="60" height="30" as="geometry" />
        </mxCell>
        <mxCell id="p4Q4N03hNA8ftK5Ow6wj-30" value="SQL" style="text;html=1;whiteSpace=wrap;strokeColor=none;fillColor=none;align=center;verticalAlign=middle;rounded=0;" vertex="1" parent="1">
          <mxGeometry x="1230" y="410" width="60" height="30" as="geometry" />
        </mxCell>
      </root>
    </mxGraphModel>
  </diagram>
</mxfile>
